<svg xmlns="http://www.w3.org/2000/svg" viewBox="0 0 124 124"><defs><style>.cls-1{fill:#0f3b6f;}.cls-1,.cls-2,.cls-3{fill-rule:evenodd;}.cls-2{fill:#2571bd;}.cls-3{fill:#fff;}</style></defs><g id="Layer_2" data-name="Layer 2"><g id="Layer_1-2" data-name="Layer 1"><path class="cls-1" d="M60.1,0a60.14,60.14,0,0,1,47.46,23.05A60.06,60.06,0,0,0,63.11,3.56C29.88,3.56,3,30.2,3,63.1a59.11,59.11,0,0,0,12.6,36.53A59.15,59.15,0,0,1,0,59.58C0,26.69,26.92,0,60.1,0Z"/><path class="cls-2" d="M63.94,124a60.15,60.15,0,0,1-47.45-23,60.2,60.2,0,0,0,44.45,19.48c33.18,0,60.1-26.68,60.1-59.58a59,59,0,0,0-12.65-36.53A59,59,0,0,1,124,64.46C124,97.35,97.12,124,63.94,124Z"/><path class="cls-3" d="M56.54,77.12l.11-4.26.75.74c1,.44,8.67,8.68,11.48,10.47-.86,2.22-3.74,4-5.58,6.06-1.63,1.87-4.39,3.64-5.65,5.49-.86.72,1,.49-.89.58l-.29-4.26c-.93-1.53-2.38-1-5.93-1.19a138.62,138.62,0,0,1-20.08-2.53c-13.54-2.83-12.78-4.39-12.75-9.81a55.27,55.27,0,0,1,.15-7.4c5.38,4.1,20.51,5.92,28.27,6.54l8.42.5c2.07-.1,1.37.24,2-.93ZM27.63,62.06l.95-.25L28.5,72.18l-1.15-.49c-3.53-.31-8.53-2.19-9.51-4.57.67-3,6.15-4.42,9.79-5.06ZM54,93.52c.19,2.38-.21,5.13.44,7,3,.29,11.29-9.26,13.68-11.45,6.91-6.3,5.65-2.66-8.55-17.46-5.76-6-5.5-3-5.5,3.56-4.34-.16-19.9-1.11-22.89-2.66-.32-3.33.4-10-.1-12.56-.46-2.29-2.38-1.24-4.45-.68C12.52,63.11,15,65,15,80.49c0,5,1.87,6,5.58,7.59,8.84,3.87,23.73,5,33.42,5.44Z"/><path class="cls-3" d="M57.71,26.56c10.46-1.82,22.17,3.09,27.23,11.8,1.76,3,2,4.23,0,7.36a22.16,22.16,0,0,1-4.7,5.36,28.4,28.4,0,0,1-13.34,6.25C54.15,59.67,43.14,52.58,39,45.44c-1.74-3-1.58-4.36.27-7.36,3.89-6.35,10.53-10.15,18.47-11.52Zm-1-2.61c-8.64,1.6-16.64,6.33-20.41,13.68-1.89,3.71-1.93,5.16,0,8.82C40.82,54.88,53.53,62.57,67.41,60,76,58.4,84,53.43,87.72,46.45c1.93-3.61,2-5.15,0-8.83C83.37,29.14,70.89,21.32,56.69,24Z"/><path class="cls-3" d="M96.68,71.68l-1.26.41.15-10.32.87.29c3.64.68,9.07,2,9.78,5.06-1,2.34-6,4.3-9.54,4.56Zm-3.76-3.32v4.19C90.47,73.84,78,74.93,74.13,75.11c-2.62.13-4.28-.33-3.8,2.54,3.25.92,15.15-.81,19.15-1.45a55.4,55.4,0,0,0,16.84-5V81.32c0,3-2.31,3.71-4.63,4.58C90,90.25,71.42,90.25,70.4,91.42c-4,4.57,21.81-.21,22.32-.31,4.74-.93,10.33-2.29,13.75-4.62,3.68-2.52,2.53-9,2.54-16,0-5.44,0-7.46-8.38-10.22-9.42-3.09-7.71-2.11-7.71,8.12Z"/><path class="cls-3" d="M60.76,33.51a8.21,8.21,0,0,1,9.48,7,8.56,8.56,0,0,1-6.61,9.88c-11,2-14.14-14.85-2.87-16.86Zm-1.21-2.46c-14.54,3.61-8.91,25.19,5,21.86a11.22,11.22,0,0,0,8.18-13.65c-1.21-5.16-6.36-9.91-13.17-8.21Z"/></g></g></svg>