<svg xmlns="http://www.w3.org/2000/svg" viewBox="0 0 124 124"><defs><style>.cls-1{fill:#0f3b6f;}.cls-1,.cls-2,.cls-3{fill-rule:evenodd;}.cls-2{fill:#2571bd;}.cls-3,.cls-4{fill:#fff;}</style></defs><g id="Layer_2" data-name="Layer 2"><g id="Layer_1-2" data-name="Layer 1"><path class="cls-1" d="M60.1,0a60.14,60.14,0,0,1,47.46,23.05A60.06,60.06,0,0,0,63.11,3.56C29.88,3.56,3,30.2,3,63.1a59.11,59.11,0,0,0,12.6,36.53A59.15,59.15,0,0,1,0,59.58C0,26.69,26.92,0,60.1,0Z"/><path class="cls-2" d="M63.94,124a60.15,60.15,0,0,1-47.45-23,60.2,60.2,0,0,0,44.45,19.48c33.18,0,60.1-26.68,60.1-59.58a59,59,0,0,0-12.65-36.53A59,59,0,0,1,124,64.46C124,97.35,97.12,124,63.94,124Z"/><path class="cls-3" d="M65,29.6c1.55-5.39-6.77-7.78-8.36-2.43C55,32.94,63.46,35.07,65,29.6Zm-4.19-3.39a2.25,2.25,0,1,1-2.25,2.25,2.25,2.25,0,0,1,2.25-2.25Z"/><path class="cls-3" d="M66.26,80.9l3.17-3.44c.88,1.05,1.51,3.17,2.14,4.82,1,2.61.73,2.75,3,4.07l6.63,4c1.22.72,1.76.65,1.67,1.68-1.66.32-7.4-3.1-9.52-4-3.24-1.42-4.18-3.16-7.06-7ZM37.4,63.38c2,.4,7.2,3.22,8.76,2.88s6.1-7,9.83-8.19c2.11-.66,2.7.7,3.58,2.13,9.12,14.73,12.09,10.86,1.37,21.24-1.25,1.21-1.91,1.42-2.36,3.46-.39,1.74-.63,3.56-1,5.34-.39,2.17-1,8.77-2.28,9.73-.34-1.45-.6-15.33-.26-17,1-4.73,7.15-7.87,3.61-11.67l-4-4.7c-1.73-1.69-3.78-.11-6.16.9-3.53,1.49-3,1.29-6-.48-1-.59-1.81-1.14-2.67-1.64-3.47-2-2.73-1.35-2.5-2ZM63.84,61l-1.59-2.67,7.53.58,4,7.14-2.33-2.52a23.21,23.21,0,0,1-2-2.77ZM86.55,90.27c-1-1-5.64-3.58-7.39-4.64-4.25-2.58-3.61-1.28-5.52-6.22-1.06-2.76-2.14-5.67-3.28-8.45s-3.52-4.9-4.27-7.06c2.14-.17,1.58-.52,4,2.67.82,1.09,1.93,2.81,3.28,3.32a8.7,8.7,0,0,0,4.12-2.82c0-1.94-3.3-6.49-4.47-8.51-2-3.42-2.19-2.61-9.83-3.19-6-.45-6.44-1.42-11,1.59-3.31,2.17-4,4-7,6-2.42-.85-4.7-2-7.15-2.77s-4.1,2.27-4.16,4.63c1.43,1.79,6.41,4.11,8.81,5.63,4.4,2.78,4.42-.09,10.49-1.44,1,1.77,2.24,2.72,3.45,4.42-.34,1.48-2.19,4.19-3,5.66-1.76,3-1.64,2.65-1.58,6.87s-.26,13.31.47,16.61a12.07,12.07,0,0,0,5.5.1c1.17-1.78,1.87-7.84,2.36-10.55,1-5.09.4-6.7,3.64-9.12a35.84,35.84,0,0,1,3.71,4.34c2.1,2.62,1.39,1.71,4.84,3.39C74.78,91.88,82,95.57,84,95.7c1.21-1.36,2.6-3.55,2.6-5.43Z"/><path class="cls-3" d="M53.56,28.64c-.84-3.56-1.78-7.31-2.32-10.92l18.32,0c-.54,3.57-1.5,7.35-2.32,10.89-1.95,8.28-11.75,8.24-13.68,0Zm-2.78,1.22c2.59,10.47,16.56,10.83,19.33-.31.72-2.92,3.19-12.36,2.61-14.57-2.1-.47-22.49-.46-24.62,0-.63,2.26,1.93,11.83,2.68,14.87Z"/><path class="cls-3" d="M53,53.11c2.38-8.25-10.36-11.91-12.79-3.73C37.61,58.24,50.62,61.48,53,53.11Zm-6.42-6a4.29,4.29,0,1,1-4.29,4.29,4.29,4.29,0,0,1,4.29-4.29Z"/><path class="cls-4" d="M32.71,52.91a1.73,1.73,0,0,0,1.74-1.73V43.24h7.91a1.73,1.73,0,1,0,0-3.45H33.79A2.81,2.81,0,0,0,31,42.59v8.59a1.73,1.73,0,0,0,1.73,1.73Z"/><path class="cls-4" d="M79.42,43.24h7.92v7.94a1.73,1.73,0,0,0,3.46,0V42.59A2.81,2.81,0,0,0,88,39.79H79.42a1.73,1.73,0,1,0,0,3.45Z"/><path class="cls-4" d="M89.86,94.25A1.73,1.73,0,0,0,88.12,96v7.92H80.21a1.74,1.74,0,0,0,0,3.47h8.58a2.81,2.81,0,0,0,2.8-2.81V96a1.73,1.73,0,0,0-1.73-1.73Z"/><path class="cls-4" d="M43.14,103.9H35.22V96a1.73,1.73,0,1,0-3.45,0v8.58a2.81,2.81,0,0,0,2.79,2.81h8.58a1.74,1.74,0,1,0,0-3.47Z"/></g></g></svg>