<svg xmlns="http://www.w3.org/2000/svg" viewBox="0 0 124 124"><defs><style>.cls-1{fill:#0f3b6f;}.cls-1,.cls-2,.cls-3{fill-rule:evenodd;}.cls-2{fill:#2571bd;}.cls-3,.cls-4{fill:#fff;}</style></defs><g id="Layer_2" data-name="Layer 2"><g id="Layer_1-2" data-name="Layer 1"><path class="cls-1" d="M60.1,0a60.14,60.14,0,0,1,47.46,23.05A60.06,60.06,0,0,0,63.11,3.56C29.88,3.56,3,30.2,3,63.1a59.11,59.11,0,0,0,12.6,36.53A59.15,59.15,0,0,1,0,59.58C0,26.69,26.92,0,60.1,0Z"/><path class="cls-2" d="M63.94,124a60.15,60.15,0,0,1-47.45-23,60.2,60.2,0,0,0,44.45,19.48c33.18,0,60.1-26.68,60.1-59.58a59,59,0,0,0-12.65-36.53A59,59,0,0,1,124,64.46C124,97.35,97.12,124,63.94,124Z"/><path class="cls-3" d="M78.31,67.27a16.73,16.73,0,0,0,.79-4.16A17.17,17.17,0,0,0,56.74,45.68c.67.91,1.38,1.77,2.14,2.62A13.69,13.69,0,0,1,61.09,48,14.06,14.06,0,0,1,76,62.92a14.62,14.62,0,0,1-.31,2.19c.83.76,1.71,1.48,2.6,2.16Z"/><path class="cls-3" d="M65.12,75.7a13.69,13.69,0,0,1-2.21.32A14.06,14.06,0,0,1,48,61.08a13.72,13.72,0,0,1,.3-2.19c-.83-.75-1.71-1.48-2.61-2.15a17.69,17.69,0,0,0-.78,4.15A17.13,17.13,0,0,0,63.1,79.1a16.88,16.88,0,0,0,4.17-.78c-.67-.91-1.4-1.77-2.15-2.62Z"/><path class="cls-3" d="M34.21,52.14a3.6,3.6,0,0,1-2.5,1h0a7.2,7.2,0,0,0-7.31,7.16v3.3a7.35,7.35,0,0,0,7.35,7.34,3.64,3.64,0,0,1,2.57,6.22,7.35,7.35,0,0,0,0,10.38l2.21,2.21a7.35,7.35,0,0,0,10.38,0,3.63,3.63,0,0,1,6.21,2.57,7.36,7.36,0,0,0,7.35,7.35h3.11a7.36,7.36,0,0,0,7.34-7.35,3.62,3.62,0,0,1,1-2.51,15.82,15.82,0,0,1-.08-3.64,6.63,6.63,0,0,0-4,6.15,4.25,4.25,0,0,1-4.25,4.25H60.45a4.25,4.25,0,0,1-4.25-4.25,6.74,6.74,0,0,0-11.5-4.76,4.26,4.26,0,0,1-6,0l-2.2-2.21a4.28,4.28,0,0,1,0-6,6.73,6.73,0,0,0-4.75-11.48,4.27,4.27,0,0,1-4.27-4.25v-3.3a4.11,4.11,0,0,1,4.23-4.07h0a6.61,6.61,0,0,0,6.13-4,14,14,0,0,1-1.46.08,16.12,16.12,0,0,1-2.19-.15ZM89.78,71.87a3.62,3.62,0,0,1,2.49-1h0a7.2,7.2,0,0,0,7.3-7.16V60.26a7.2,7.2,0,0,0-7.3-7.16h0a3.64,3.64,0,0,1-2.57-6.22,7.33,7.33,0,0,0,0-10.38l-2.33-2.34a7.19,7.19,0,0,0-10.24.13,3.64,3.64,0,0,1-6.23-2.57,7.34,7.34,0,0,0-7.34-7.33H60.45a7.34,7.34,0,0,0-7.35,7.33,3.57,3.57,0,0,1-1,2.5,14.15,14.15,0,0,1,.16,2.26c0,.47,0,.92-.07,1.39a6.63,6.63,0,0,0,4-6.15,4.25,4.25,0,0,1,4.25-4.25h3.11a4.25,4.25,0,0,1,4.25,4.25,6.74,6.74,0,0,0,11.51,4.75,4.11,4.11,0,0,1,5.87-.12l2.32,2.34a4.24,4.24,0,0,1,0,6A6.73,6.73,0,0,0,92.3,56.19h0a4.1,4.1,0,0,1,4.21,4.07v3.48a4.1,4.1,0,0,1-4.21,4.07h0a6.66,6.66,0,0,0-6.15,4,11.1,11.1,0,0,1,1.41-.07,14.24,14.24,0,0,1,2.25.14Z"/><path class="cls-4" d="M53.76,63.64l-3.58-3.57a40,40,0,0,0-10.55-7.59l-1.46-.75a14.75,14.75,0,0,1-1.77.12,15.16,15.16,0,0,1-10.79-4.5L23.94,45.7a13.67,13.67,0,0,1-2.55-15.78,1.4,1.4,0,0,1,1.87-.62,1.58,1.58,0,0,1,.36.26l6.93,6.92a4.19,4.19,0,0,0,5.93-5.93l-6.93-6.91a1.41,1.41,0,0,1,0-2,2,2,0,0,1,.37-.27A13.64,13.64,0,0,1,45.68,24l1.66,1.66a15.22,15.22,0,0,1,4.5,10.87,16,16,0,0,1-.1,1.7l.72,1.46a40.38,40.38,0,0,0,7.61,10.54l3.56,3.57,5.95,5.93,4.25,4.25a40,40,0,0,0,10.54,7.61l1.45.73a14,14,0,0,1,1.71-.1,15.18,15.18,0,0,1,10.86,4.5l1.67,1.65a13.62,13.62,0,0,1,2.54,15.77,1.37,1.37,0,0,1-1.87.61,1.83,1.83,0,0,1-.36-.26l-6.91-6.91a4.19,4.19,0,1,0-6,5.87s0,0,.06.06l6.91,6.91a1.41,1.41,0,0,1,0,2,1.21,1.21,0,0,1-.37.25,13.65,13.65,0,0,1-15.76-2.56L76.66,98.4a15.14,15.14,0,0,1-4.38-12.56l-.75-1.49a40.49,40.49,0,0,0-7.59-10.53l-4.25-4.25Zm-8.39-36-1.66-1.67A10.88,10.88,0,0,0,33,23.16l5.41,5.42A7,7,0,0,1,28.6,38.5s0,0,0,0l-5.41-5.4a10.84,10.84,0,0,0,2.76,10.66l1.66,1.67a12.52,12.52,0,0,0,10.66,3.55h0a15.7,15.7,0,0,0,1.92-.44l.08,0a13,13,0,0,0,1.79-.7l.07,0a11.28,11.28,0,0,0,1.68-1,14.11,14.11,0,0,0,1.55-1.33,12.42,12.42,0,0,0,3.55-7.13A12.94,12.94,0,0,0,49,36.48a12.46,12.46,0,0,0-3.67-8.89ZM58.09,52.16a43.13,43.13,0,0,1-7.39-9.85c-.05.15-.14.29-.2.44s-.22.49-.34.73-.22.39-.32.58-.23.41-.36.62l-.38.57c-.13.19-.28.38-.43.57s-.27.36-.42.54l-.53.57c-.13.14-.24.29-.38.42s-.22.2-.33.29a8.57,8.57,0,0,1-.7.64c-.13.11-.27.21-.38.31-.27.19-.51.4-.79.57a3.11,3.11,0,0,1-.38.25,9.85,9.85,0,0,1-.89.52,3.37,3.37,0,0,1-.32.19q-.6.32-1.23.57l0,0a42.78,42.78,0,0,1,9.86,7.38l3.58,3.57,5.93,5.93,4.25,4.25A43.92,43.92,0,0,1,73.3,81.7a.84.84,0,0,1,.06-.14c.16-.37.32-.72.51-1.08.07-.15.16-.29.23-.44s.3-.5.46-.75a5.14,5.14,0,0,1,.32-.49l.48-.66c.13-.16.25-.32.38-.47s.41-.46.63-.68a1.75,1.75,0,0,1,.29-.32,3.55,3.55,0,0,1,.34-.33c.21-.2.43-.41.65-.59l.51-.4.6-.45.56-.37.64-.38.56-.3c.26-.14.52-.25.78-.37a4.34,4.34,0,0,1,.4-.17,43.15,43.15,0,0,1-9.86-7.4l-4.25-4.25-5.93-5.93ZM78.63,96.43l1.67,1.66A10.86,10.86,0,0,0,91,100.85l-5.4-5.42a7,7,0,0,1,9.87-9.88l5.4,5.42a10.8,10.8,0,0,0-2.76-10.68l-1.65-1.65a12.57,12.57,0,0,0-21.34,7.13h0a12.49,12.49,0,0,0,3.55,10.66Z"/></g></g></svg>