<svg xmlns="http://www.w3.org/2000/svg" viewBox="0 0 124 124"><defs><style>.cls-1{fill:#0f3b6f;}.cls-1,.cls-2{fill-rule:evenodd;}.cls-2{fill:#2571bd;}.cls-3{fill:#fff;}</style></defs><g id="Layer_2" data-name="Layer 2"><g id="Layer_1-2" data-name="Layer 1"><path class="cls-1" d="M60.1,0a60.14,60.14,0,0,1,47.46,23.05A60.06,60.06,0,0,0,63.11,3.56C29.88,3.56,3,30.2,3,63.1a59.11,59.11,0,0,0,12.6,36.53A59.15,59.15,0,0,1,0,59.58C0,26.69,26.92,0,60.1,0Z"/><path class="cls-2" d="M63.94,124a60.15,60.15,0,0,1-47.45-23,60.2,60.2,0,0,0,44.45,19.48c33.18,0,60.1-26.68,60.1-59.58a59,59,0,0,0-12.65-36.53A59,59,0,0,1,124,64.46C124,97.35,97.12,124,63.94,124Z"/><path class="cls-3" d="M107.55,82.61l0-43.7A6.92,6.92,0,0,0,100.6,32l-81.32,0A6.92,6.92,0,0,0,12.37,39l0,43.7a6.91,6.91,0,0,0,6.91,6.9l81.33,0A6.92,6.92,0,0,0,107.55,82.61ZM19.31,86.77a4.11,4.11,0,0,1-4.11-4.1l0-43.7a4.12,4.12,0,0,1,4.11-4.12l81.32-.05a4.12,4.12,0,0,1,4.12,4.11l0,43.7a4.1,4.1,0,0,1-4.1,4.11Z"/><path class="cls-3" d="M99.36,57.3v6.92a1.4,1.4,0,0,0,2.8,0V57.3a1.4,1.4,0,1,0-2.8,0Z"/><path class="cls-3" d="M60.4,49A1.54,1.54,0,0,0,62,47.46V41.18a1.55,1.55,0,1,0-3.09,0v6.28A1.55,1.55,0,0,0,60.4,49Z"/><path class="cls-3" d="M60.42,71.35a1.54,1.54,0,0,0-1.54,1.55v6.28a1.55,1.55,0,1,0,3.09,0V72.9a1.54,1.54,0,0,0-1.55-1.55Z"/><path class="cls-3" d="M68.83,60.17a8.1,8.1,0,1,0-8.1,8.09,8.1,8.1,0,0,0,8.1-8.09Zm-13.11,0a5,5,0,1,1,5,5,5,5,0,0,1-5-5Z"/><path class="cls-3" d="M65.36,45.37a1.55,1.55,0,0,0,1.54,1.54H74V54a1.55,1.55,0,0,0,3.09,0V46.32a2.51,2.51,0,0,0-2.51-2.5H66.9a1.55,1.55,0,0,0-1.54,1.55Z"/><path class="cls-3" d="M74,66.35v7.08H66.92a1.55,1.55,0,0,0,0,3.09H74.6A2.52,2.52,0,0,0,77.11,74V66.35a1.55,1.55,0,0,0-3.09,0Z"/><path class="cls-3" d="M56.09,75a1.53,1.53,0,0,0-1.54-1.54H47.46V66.37a1.54,1.54,0,1,0-3.08,0V74a2.51,2.51,0,0,0,2.51,2.49h7.67A1.54,1.54,0,0,0,56.09,75Z"/><path class="cls-3" d="M47.45,54V46.93h7.09a1.55,1.55,0,0,0,0-3.09H46.85a2.52,2.52,0,0,0-2.49,2.51V54a1.55,1.55,0,0,0,3.09,0Z"/><path class="cls-3" d="M71.92,60.17a1.54,1.54,0,0,0,1.55,1.54h6a1.55,1.55,0,1,0,0-3.09h-6a1.54,1.54,0,0,0-1.55,1.54Z"/><path class="cls-3" d="M49.54,60.18A1.55,1.55,0,0,0,48,58.64h-6.6a1.54,1.54,0,0,0,0,3.08H48a1.56,1.56,0,0,0,1.55-1.55Z"/></g></g></svg>