<?xml version="1.0" encoding="UTF-8"?>
<!DOCTYPE svg PUBLIC "-//W3C//DTD SVG 1.1//EN" "http://www.w3.org/Graphics/SVG/1.1/DTD/svg11.dtd">
<!-- Creator: CorelDRAW 2019 (64-Bit) -->
<svg xmlns="http://www.w3.org/2000/svg" xml:space="preserve" width="3.3868mm" height="3.3868mm" version="1.1" style="shape-rendering:geometricPrecision; text-rendering:geometricPrecision; image-rendering:optimizeQuality; fill-rule:evenodd; clip-rule:evenodd"
viewBox="0 0 338.68 338.68"
 xmlns:xlink="http://www.w3.org/1999/xlink"
 xmlns:xodm="http://www.corel.com/coreldraw/odm/2003">
 <defs>
  <style type="text/css">
   <![CDATA[
    .fil1 {fill:#FEFEFE;fill-rule:nonzero}
    .fil0 {fill:#244F7E;fill-rule:nonzero}
   ]]>
  </style>
 </defs>
 <g id="Слой_x0020_1">
  <metadata id="CorelCorpID_0Corel-Layer"/>
  <path class="fil0" d="M338.68 169.35c0,93.51 -75.81,169.33 -169.28,169.33 -93.59,0 -169.4,-75.82 -169.4,-169.33 0,-93.53 75.81,-169.35 169.4,-169.35 93.47,0 169.28,75.82 169.28,169.35z"/>
  <path class="fil1" d="M155.06 119.09c0.12,-7.8 6.5,-13.95 14.23,-13.88 7.85,0.08 14.1,6.36 14.1,14.14 -0.12,8.01 -6.49,14.29 -14.59,14.12 -7.73,-0.16 -13.86,-6.57 -13.74,-14.38zm122.78 131.97c-10.91,8.69 -23.79,13.37 -37.04,17.03 -19.01,5.26 -38.52,7.57 -58.27,8.51l-1.34 0.04c-4.79,-0.11 -7.85,-2.78 -7.98,-6.93 -0.12,-4.23 2.7,-6.99 7.61,-7.24 18.28,-0.93 36.43,-2.39 53.97,-7.69 10.55,-3.14 20.97,-7.07 30.42,-12.45 14.47,-8.23 14.23,-17.62 0.25,-26.55 -4.91,-3.1 -11.78,-6.37 -16.32,-8.53 -1.35,-0.65 -2.08,-1.38 -2.45,-2.72 -1.23,-4.18 -1.96,-8.52 -2.95,-13.52 12.64,3.77 24.29,8.27 34.23,16.31 16.31,13.13 16.31,30.66 -0.13,43.74zm-53.72 -66.11c6.13,8.52 9.2,18.06 8.83,28.56 -0.24,4.17 -3.19,6.42 -7.36,6.49 -5.64,0.09 -78.99,0.06 -110.03,0.05 -8.34,0 -10.79,-2.61 -10.06,-10.9 0.74,-8.78 3.44,-16.89 8.71,-24.21 36.56,26.07 73.11,26.21 109.91,0.01zm-88.68 78.59c2.94,4.83 1.71,8.72 -3.32,11.36 -8.95,4.73 -18.03,9.4 -27.23,13.98 -4.91,2.47 -9.08,1.42 -11.04,-2.41 -1.96,-3.92 -0.24,-7.61 4.66,-10.23 3.07,-1.6 6.01,-3.14 9.94,-5.16 -7.11,-2.06 -32.02,-9.9 -47.59,-20.15 -8.22,-5.4 -13.13,-13.31 -12.27,-23.97 0.49,-6.97 4.05,-12.12 8.59,-16.77 7.85,-7.84 24.41,-16.15 37.41,-18.88 -0.98,4.8 -1.72,9.52 -2.94,14.1 -0.37,1.14 -2.21,1.94 -3.56,2.57 -6.5,3.05 -13.37,5.8 -19.51,11.24 -7.85,6.92 -8.21,13.17 -0.12,19.87 11.29,9.28 24.9,13.18 38.64,16.76 2.08,0.54 4.29,0.84 7.73,1.53 -3.07,-5.15 -5.52,-9.11 -7.98,-13.14 -2.57,-4.43 -1.84,-8.55 1.96,-10.71 3.44,-2.07 7.37,-0.97 9.94,3.12 5.65,8.9 11.16,17.87 16.69,26.89zm34.09 -172.49c15.58,0.17 28.1,12.93 27.97,28.49 -0.12,15.63 -12.76,28.17 -28.33,28.11 -15.58,-0.05 -28.22,-12.74 -28.22,-28.26 0,-15.78 12.88,-28.52 28.58,-28.34zm-0.36 99.18c39.13,0 70.9,-31.77 70.9,-70.88 0,-39.14 -31.65,-70.8 -70.9,-70.88 -38.77,-0.1 -70.78,31.71 -70.78,70.4 -0.12,39.52 31.52,71.35 70.78,71.36z"/>
 </g>
</svg>
