<?xml version="1.0" encoding="UTF-8"?>
<!DOCTYPE svg PUBLIC "-//W3C//DTD SVG 1.1//EN" "http://www.w3.org/Graphics/SVG/1.1/DTD/svg11.dtd">
<!-- Creator: CorelDRAW 2019 (64-Bit) -->
<svg xmlns="http://www.w3.org/2000/svg" xml:space="preserve" width="3.3867mm" height="3.3867mm" version="1.1" style="shape-rendering:geometricPrecision; text-rendering:geometricPrecision; image-rendering:optimizeQuality; fill-rule:evenodd; clip-rule:evenodd"
viewBox="0 0 338.68 338.68"
 xmlns:xlink="http://www.w3.org/1999/xlink"
 xmlns:xodm="http://www.corel.com/coreldraw/odm/2003">
 <defs>
  <style type="text/css">
   <![CDATA[
    .fil1 {fill:white}
    .fil0 {fill:#194B7D;fill-rule:nonzero}
   ]]>
  </style>
 </defs>
 <g id="Слой_x0020_1">
  <metadata id="CorelCorpID_0Corel-Layer"/>
  <g id="_2248680361680">
   <path class="fil0" d="M338.68 169.34c0,93.53 -75.8,169.35 -169.35,169.35 -93.51,0 -169.34,-75.81 -169.34,-169.35 0,-93.52 75.82,-169.34 169.34,-169.34 93.54,0 169.35,75.81 169.35,169.34z"/>
   <g>
    <path class="fil1" d="M135.57 209.54c6.23,5.48 32.17,19.96 40.86,24.9 2.95,1.68 11.45,7.17 13.82,8.04 15.71,5.79 11.82,-19.09 11.82,-29.67l0.03 -87.15c-0.06,-6.78 0.45,-15.2 -0.05,-21.73 -1.35,-17.84 -20.65,-2.84 -25.65,0.07 -6.44,3.75 -40.14,22.69 -40.83,24.93l0 80.61z"/>
    <path class="fil1" d="M119.28 210.32l-0.07 -82.1c-8.48,-1.56 -36.35,-1.52 -42.45,2.5 -11.5,7.58 -8.78,23.18 -8.76,38.51 0.02,16.7 -2.98,29.29 8.23,37.99 6.33,4.91 33.45,4.61 43.05,3.1z"/>
    <path class="fil1" d="M249.11 119.88c-13.78,8.33 18.84,31.09 -0.33,81.51 -1.51,3.99 -4.46,8.36 -3.25,12.96 1.22,4.59 6.69,7.12 11.82,4.44 8.95,-4.68 14.06,-40.27 13.64,-53.97 -0.34,-11.34 -6.75,-54.08 -21.88,-44.94z"/>
    <path class="fil1" d="M224.33 145.07c-8.98,4.17 -1.27,11.33 -2.45,28.47 -0.33,4.75 -2.52,10.91 -1.7,14.96 0.92,4.53 5.94,7.95 11.86,4.96 8.66,-4.38 11.22,-57.19 -7.71,-48.39z"/>
   </g>
  </g>
 </g>
</svg>
