<?xml version="1.0" encoding="UTF-8"?>
<!DOCTYPE svg PUBLIC "-//W3C//DTD SVG 1.1//EN" "http://www.w3.org/Graphics/SVG/1.1/DTD/svg11.dtd">
<!-- Creator: CorelDRAW 2019 (64-Bit) -->
<svg xmlns="http://www.w3.org/2000/svg" xml:space="preserve" width="3.3868mm" height="3.3868mm" version="1.1" style="shape-rendering:geometricPrecision; text-rendering:geometricPrecision; image-rendering:optimizeQuality; fill-rule:evenodd; clip-rule:evenodd"
viewBox="0 0 338.68 338.68"
 xmlns:xlink="http://www.w3.org/1999/xlink"
 xmlns:xodm="http://www.corel.com/coreldraw/odm/2003">
 <defs>
  <style type="text/css">
   <![CDATA[
    .fil1 {fill:#FEFEFE;fill-rule:nonzero}
    .fil0 {fill:#244F7E;fill-rule:nonzero}
   ]]>
  </style>
 </defs>
 <g id="Слой_x0020_1">
  <metadata id="CorelCorpID_0Corel-Layer"/>
  <g id="_2248651990544">
   <path class="fil0" d="M338.68 169.35c0,93.51 -75.82,169.33 -169.33,169.33 -93.52,0 -169.35,-75.82 -169.35,-169.33 0,-93.53 75.83,-169.35 169.35,-169.35 93.51,0 169.33,75.82 169.33,169.35z"/>
   <path class="fil1" d="M295.66 133.07c-2.29,-2.55 -57.35,-63.1 -126.31,-63.1 -68.97,0 -124.04,60.55 -126.32,63.1 -2.56,2.86 -2.56,7.18 0,10.04 1.3,1.46 20.1,21.72 48.67,38.82l0 -3.37c0,-12 2.75,-23.49 7.66,-33.71 4.91,-10.22 11.92,-19.21 20.52,-26.4 5.73,-4.8 12.19,-8.79 19.16,-11.79 9.3,-4.01 19.6,-6.25 30.31,-6.25 8.02,0 15.82,1.27 23.13,3.58 7.33,2.33 14.17,5.7 20.37,9.94 12.35,8.48 22.13,20.39 28.03,34.36 3.92,9.34 6.11,19.6 6.11,30.27l0 3.37c28.56,-17.1 47.36,-37.36 48.67,-38.82 2.56,-2.86 2.56,-7.18 0,-10.04zm-88.75 44.99c0,-4.16 -3.36,-7.51 -7.51,-7.51l-7.51 0 0 -7.51c0,-12.44 -10.12,-22.54 -22.54,-22.54 -12.43,0 -22.55,10.1 -22.55,22.54l0 7.51 -7.51 0c-4.15,0 -7.52,3.35 -7.52,7.51l0 45.08c0,4.16 3.37,7.51 7.52,7.51l60.11 0c4.15,0 7.51,-3.35 7.51,-7.51l0 -45.08zm22.53 0l0 30.05c0,33.15 -26.95,60.61 -60.09,60.61 -33.15,0 -60.12,-27.46 -60.12,-60.61l0 -30.05c0,-33.15 26.97,-60.1 60.12,-60.1 33.14,0 60.09,26.95 60.09,60.1zm-82.64 37.57l45.09 0 0 -30.06 -45.09 0 0 30.06zm30.05 -45.08l-15.02 0 0 -7.51c0,-4.15 3.37,-7.52 7.52,-7.52 4.14,0 7.5,3.37 7.5,7.52l0 7.51z"/>
  </g>
 </g>
</svg>
