<?xml version="1.0" encoding="UTF-8"?>
<!DOCTYPE svg PUBLIC "-//W3C//DTD SVG 1.1//EN" "http://www.w3.org/Graphics/SVG/1.1/DTD/svg11.dtd">
<!-- Creator: CorelDRAW 2019 (64-Bit) -->
<svg xmlns="http://www.w3.org/2000/svg" xml:space="preserve" width="3.3868mm" height="3.3867mm" version="1.1" style="shape-rendering:geometricPrecision; text-rendering:geometricPrecision; image-rendering:optimizeQuality; fill-rule:evenodd; clip-rule:evenodd"
viewBox="0 0 338.68 338.67"
 xmlns:xlink="http://www.w3.org/1999/xlink"
 xmlns:xodm="http://www.corel.com/coreldraw/odm/2003">
 <defs>
  <style type="text/css">
   <![CDATA[
    .fil1 {fill:#FEFEFE;fill-rule:nonzero}
    .fil0 {fill:#194B7D;fill-rule:nonzero}
   ]]>
  </style>
 </defs>
 <g id="Слой_x0020_1">
  <metadata id="CorelCorpID_0Corel-Layer"/>
  <g id="_2248679104416">
   <path class="fil0" d="M338.68 169.33c0,93.53 -75.81,169.34 -169.4,169.34 -93.47,0 -169.28,-75.81 -169.28,-169.34 0,-93.52 75.81,-169.33 169.28,-169.33 93.59,0 169.4,75.81 169.4,169.33z"/>
   <path class="fil1" d="M128.8 58.02c12.88,0 23.43,10.49 23.43,23.43 0,12.96 -10.55,23.43 -23.43,23.43 -13,0 -23.43,-10.47 -23.43,-23.43 0,-12.94 10.43,-23.43 23.43,-23.43z"/>
   <path class="fil1" d="M261.52 205.38c-24.65,14.38 -39.37,-6.71 -50.41,-27 -0.49,-1.96 -1.23,-3.94 -2.21,-5.94 -8.59,-16.71 -17.67,-33.26 -26.99,-49.55 18.28,-5.84 35.09,-0.5 48.21,17.95 10.79,15.03 35.82,0.62 25.02,-14.56 -25.51,-35.74 -63.54,-44.6 -101.68,-21.99 -1.6,0.95 -2.82,2.04 -3.81,3.23l-1.71 0.75c-1.6,0.3 -3.19,0.89 -4.79,1.85 -23.67,14.06 -45.63,11.4 -62.06,-11.62 -10.68,-15.01 -35.82,-0.61 -24.9,14.58 20.97,29.35 50.29,40.53 81.32,31.05 9.69,16.68 18.89,33.66 27.72,50.81 -13,6.7 -25.14,15.04 -36.43,24.86l-1.35 1.3c-2.45,1.26 -4.66,3.37 -6.13,6.52 -7.61,15.67 -15.21,31.32 -22.69,46.98 -8.22,16.82 18.03,29.01 26.12,12.27 7.12,-14.89 14.35,-29.77 21.59,-44.64l2.82 -2.01c13.13,-11.38 28.09,-20.61 44.53,-26.33l2.21 -0.99c20.12,25.48 48.08,39.52 81.57,19.91 17.66,-10.33 1.72,-37.78 -15.95,-27.43z"/>
  </g>
 </g>
</svg>
