<?xml version="1.0" encoding="UTF-8"?>
<!DOCTYPE svg PUBLIC "-//W3C//DTD SVG 1.1//EN" "http://www.w3.org/Graphics/SVG/1.1/DTD/svg11.dtd">
<!-- Creator: CorelDRAW 2019 (64-Bit) -->
<svg xmlns="http://www.w3.org/2000/svg" xml:space="preserve" width="3.3867mm" height="3.3867mm" version="1.1" style="shape-rendering:geometricPrecision; text-rendering:geometricPrecision; image-rendering:optimizeQuality; fill-rule:evenodd; clip-rule:evenodd"
viewBox="0 0 338.68 338.68"
 xmlns:xlink="http://www.w3.org/1999/xlink"
 xmlns:xodm="http://www.corel.com/coreldraw/odm/2003">
 <defs>
  <style type="text/css">
   <![CDATA[
    .fil1 {fill:#FEFEFE;fill-rule:nonzero}
    .fil0 {fill:#194B7D;fill-rule:nonzero}
   ]]>
  </style>
 </defs>
 <g id="Слой_x0020_1">
  <metadata id="CorelCorpID_0Corel-Layer"/>
  <g id="_2248661150096">
   <path class="fil0" d="M338.68 169.35c0,93.53 -75.8,169.33 -169.35,169.33 -93.51,0 -169.34,-75.8 -169.34,-169.33 0,-93.52 75.82,-169.35 169.34,-169.35 93.54,0 169.35,75.82 169.35,169.35z"/>
   <path class="fil1" d="M263.15 217.89l-56.75 -13.37c-4.73,-1.11 -9.47,1.81 -10.57,6.54 -1.12,4.73 1.79,9.47 6.53,10.57l56.77 13.4c4.72,1.12 9.47,-1.82 10.57,-6.57 1.11,-4.73 -1.81,-9.45 -6.55,-10.57zm-56.75 -85l56.75 -13.36c4.74,-1.14 7.66,-5.86 6.55,-10.59 -1.1,-4.75 -5.85,-7.67 -10.57,-6.55l-56.77 13.38c-4.74,1.1 -7.65,5.85 -6.53,10.57 1.1,4.73 5.84,7.67 10.57,6.55zm58.27 27.03l-58.31 0c-4.86,0 -8.79,3.93 -8.79,8.79 0,4.85 3.93,8.81 8.79,8.81l58.31 0c4.87,0 8.81,-3.96 8.81,-8.81 0,-4.86 -3.94,-8.79 -8.81,-8.79zm-84.31 -50.51l0 119.87c0,8.82 -7.15,15.96 -15.94,15.96l-20.67 0c-38.57,0 -72.98,-27.67 -77.9,-65.9 -5.93,-46.29 30.12,-85.87 75.24,-85.87l23.33 0c8.79,0 15.94,7.13 15.94,15.94z"/>
  </g>
 </g>
</svg>
