<?xml version="1.0" encoding="UTF-8"?>
<!DOCTYPE svg PUBLIC "-//W3C//DTD SVG 1.1//EN" "http://www.w3.org/Graphics/SVG/1.1/DTD/svg11.dtd">
<!-- Creator: CorelDRAW 2019 (64-Bit) -->
<svg xmlns="http://www.w3.org/2000/svg" xml:space="preserve" width="3.3867mm" height="3.3868mm" version="1.1" style="shape-rendering:geometricPrecision; text-rendering:geometricPrecision; image-rendering:optimizeQuality; fill-rule:evenodd; clip-rule:evenodd"
viewBox="0 0 338.68 338.69"
 xmlns:xlink="http://www.w3.org/1999/xlink"
 xmlns:xodm="http://www.corel.com/coreldraw/odm/2003">
 <defs>
  <style type="text/css">
   <![CDATA[
    .fil1 {fill:#FEFEFE;fill-rule:nonzero}
    .fil0 {fill:#244F7E;fill-rule:nonzero}
   ]]>
  </style>
 </defs>
 <g id="Слой_x0020_1">
  <metadata id="CorelCorpID_0Corel-Layer"/>
  <g id="_2248670704288">
   <path class="fil0" d="M338.68 169.36c0,93.51 -75.82,169.34 -169.33,169.34 -93.54,0 -169.35,-75.82 -169.35,-169.34 0,-93.53 75.8,-169.36 169.35,-169.36 93.51,0 169.33,75.82 169.33,169.36z"/>
   <path class="fil1" d="M209.68 110.44l1.09 -1.09c1.56,-1.56 2.43,-3.67 2.43,-5.85l-0.01 -0.61c-0.18,-2.39 -1.38,-4.58 -3.31,-6.02 -11.51,-8.61 -25.21,-13.16 -39.61,-13.16 -15.46,0 -29.94,5.14 -41.85,14.89 -1.81,1.47 -2.91,3.64 -3.03,5.99 -0.13,2.39 0.76,4.6 2.42,6.25l1.1 1.11c3,3 7.77,3.24 11.06,0.56 8.66,-7.01 19.13,-10.73 30.3,-10.73 10.38,0 20.28,3.27 28.63,9.47 3.29,2.44 7.87,2.1 10.78,-0.81zm31.98 -35.76c-0.09,-2.32 -1.16,-4.48 -2.91,-5.98 -19.13,-16.13 -43.44,-25.02 -68.48,-25.02 -26.01,0 -51.05,9.5 -70.48,26.77 -1.71,1.52 -2.71,3.67 -2.78,5.93 -0.08,2.41 0.81,4.5 2.42,6.1l1.1 1.09c3.09,3.08 8.03,3.23 11.32,0.33 16.11,-14.27 36.86,-22.14 58.42,-22.14 20.72,0 40.87,7.34 56.74,20.68 3.27,2.76 8.13,2.56 11.16,-0.47l1.09 -1.09c1.56,-1.56 2.42,-3.66 2.42,-5.85l-0.02 -0.35zm-28.75 103.71l0 23.2c0,11.64 -4.54,22.58 -12.76,30.81 -8.23,8.23 -19.17,12.76 -30.8,12.76 -11.66,0 -22.59,-4.53 -30.82,-12.76 -8.23,-8.23 -12.76,-19.17 -12.76,-30.81l0 -23.2c-8.46,0 -15.32,6.84 -15.32,15.32l0 7.88c0,7.96 1.56,15.65 4.64,22.92 2.95,7.02 7.21,13.31 12.61,18.72 5.39,5.4 11.7,9.66 18.71,12.61 3.7,1.58 7.52,2.74 11.41,3.51l0 18c-7.61,2.26 -13.16,9.32 -13.16,17.65l49.35 0c0,-8.33 -5.55,-15.39 -13.16,-17.65l0 -18c3.91,-0.77 7.72,-1.93 11.41,-3.51 7.02,-2.95 13.31,-7.21 18.72,-12.61 5.4,-5.41 9.65,-11.7 12.61,-18.72 3.07,-7.27 4.63,-14.96 4.63,-22.92l0 -7.89c0,-8.47 -6.85,-15.31 -15.31,-15.31zm-11.54 -24.12l0 47.35c0,17.68 -14.34,32.02 -32.02,32.02 -17.69,0 -32.03,-14.34 -32.03,-32.02l0 -47.35c0,-17.69 14.34,-32.03 32.03,-32.03 17.68,0 32.02,14.34 32.02,32.03z"/>
  </g>
 </g>
</svg>
