<?xml version="1.0" encoding="UTF-8"?>
<!DOCTYPE svg PUBLIC "-//W3C//DTD SVG 1.1//EN" "http://www.w3.org/Graphics/SVG/1.1/DTD/svg11.dtd">
<!-- Creator: CorelDRAW 2019 (64-Bit) -->
<svg xmlns="http://www.w3.org/2000/svg" xml:space="preserve" width="3.3867mm" height="3.3867mm" version="1.1" style="shape-rendering:geometricPrecision; text-rendering:geometricPrecision; image-rendering:optimizeQuality; fill-rule:evenodd; clip-rule:evenodd"
viewBox="0 0 338.68 338.68"
 xmlns:xlink="http://www.w3.org/1999/xlink"
 xmlns:xodm="http://www.corel.com/coreldraw/odm/2003">
 <defs>
  <style type="text/css">
   <![CDATA[
    .fil1 {fill:#FEFEFE;fill-rule:nonzero}
    .fil0 {fill:#194B7D;fill-rule:nonzero}
   ]]>
  </style>
 </defs>
 <g id="Слой_x0020_1">
  <metadata id="CorelCorpID_0Corel-Layer"/>
  <g id="_2248656249376">
   <path class="fil0" d="M338.68 169.32c0,93.51 -75.8,169.36 -169.33,169.36 -93.51,0 -169.35,-75.84 -169.35,-169.36 0,-93.51 75.83,-169.32 169.35,-169.32 93.53,0 169.33,75.81 169.33,169.32z"/>
   <path class="fil1" d="M226.91 143.73c17.64,0 32,-14.35 32,-31.97 0,-7.37 -2.41,-14.27 -6.99,-19.97l-25.01 -31.64 -24.99 31.64c-4.57,5.7 -6.98,12.6 -6.98,19.97 0,17.62 14.33,31.97 31.97,31.97zm-108.74 64.41c0,17.65 14.33,31.98 31.99,31.98 0,7.6 -7.35,12.14 -14.74,10.29 -14.14,-3.52 -24.34,-13.73 -27.56,-27.57 -1.72,-7.39 2.72,-14.7 10.31,-14.7zm-38.38 0c0,38.79 31.57,70.37 70.37,70.37 38.79,0 70.37,-31.58 70.37,-70.37 0,-15.94 -5.48,-31.97 -15.41,-44.39l-54.96 -68.64 -54.96 68.64c-9.95,12.42 -15.41,28.45 -15.41,44.39z"/>
  </g>
 </g>
</svg>
