<?xml version="1.0" encoding="UTF-8"?>
<!DOCTYPE svg PUBLIC "-//W3C//DTD SVG 1.1//EN" "http://www.w3.org/Graphics/SVG/1.1/DTD/svg11.dtd">
<!-- Creator: CorelDRAW 2019 (64-Bit) -->
<svg xmlns="http://www.w3.org/2000/svg" xml:space="preserve" width="3.3867mm" height="3.3867mm" version="1.1" style="shape-rendering:geometricPrecision; text-rendering:geometricPrecision; image-rendering:optimizeQuality; fill-rule:evenodd; clip-rule:evenodd"
viewBox="0 0 338.68 338.68"
 xmlns:xlink="http://www.w3.org/1999/xlink"
 xmlns:xodm="http://www.corel.com/coreldraw/odm/2003">
 <defs>
  <style type="text/css">
   <![CDATA[
    .fil1 {fill:white}
    .fil0 {fill:#194B7D;fill-rule:nonzero}
   ]]>
  </style>
 </defs>
 <g id="Слой_x0020_1">
  <metadata id="CorelCorpID_0Corel-Layer"/>
  <g id="_2248668805104">
   <path class="fil0" d="M338.68 169.34c0,93.53 -75.8,169.35 -169.35,169.35 -93.51,0 -169.34,-75.81 -169.34,-169.35 0,-93.52 75.82,-169.34 169.34,-169.34 93.54,0 169.35,75.81 169.35,169.34z"/>
   <g>
    <path class="fil1" d="M160.84 132.36c22.78,-5.83 41.37,10.54 45.37,28.05 5.24,22.89 -10.3,40.79 -27.58,45.16 -47.9,12.11 -67.35,-60.54 -17.79,-73.21zm112.83 41.08c5.72,-12.33 -29.08,-42.65 -36.97,-48.44 -41.28,-30.29 -86.36,-32.91 -129.07,-3.52 -8.46,5.82 -17.58,13.4 -23.63,19.82 -3.1,3.3 -16.91,19.12 -18.81,23.81 -2.73,6.72 1.9,11.8 4.84,15.9 7.37,10.27 21.91,25.14 32.11,32.65 41.23,30.39 86.39,32.82 129.04,3.53 13.29,-9.12 36.31,-30.44 42.49,-43.75z"/>
    <path class="fil1" d="M145.05 172.63c4.29,31.12 53.38,25.88 48.72,-7.23 -4.44,-31.58 -53.29,-25.85 -48.72,7.23z"/>
   </g>
  </g>
 </g>
</svg>
