<?xml version="1.0" encoding="UTF-8"?>
<!DOCTYPE svg PUBLIC "-//W3C//DTD SVG 1.1//EN" "http://www.w3.org/Graphics/SVG/1.1/DTD/svg11.dtd">
<!-- Creator: CorelDRAW 2019 (64-Bit) -->
<svg xmlns="http://www.w3.org/2000/svg" xml:space="preserve" width="3.3866mm" height="3.3867mm" version="1.1" style="shape-rendering:geometricPrecision; text-rendering:geometricPrecision; image-rendering:optimizeQuality; fill-rule:evenodd; clip-rule:evenodd"
viewBox="0 0 338.66 338.67"
 xmlns:xlink="http://www.w3.org/1999/xlink"
 xmlns:xodm="http://www.corel.com/coreldraw/odm/2003">
 <defs>
  <style type="text/css">
   <![CDATA[
    .fil1 {fill:#FEFEFE;fill-rule:nonzero}
    .fil0 {fill:#194B7D;fill-rule:nonzero}
   ]]>
  </style>
 </defs>
 <g id="Слой_x0020_1">
  <metadata id="CorelCorpID_0Corel-Layer"/>
  <g id="_2248651990480">
   <path class="fil0" d="M338.66 169.34c0,93.53 -75.8,169.33 -169.33,169.33 -93.52,0 -169.34,-75.8 -169.34,-169.33 0,-93.52 75.82,-169.34 169.34,-169.34 93.53,0 169.33,75.82 169.33,169.34z"/>
   <path class="fil1" d="M243 176.18c-22.19,22.19 -58.71,22.56 -80.89,0.4 -22.19,-22.21 -21.8,-58.71 0.37,-80.89 6.25,-6.25 13.64,-10.53 21.46,-13.27 -27.07,-4.45 -55.8,3.56 -76.64,24.38 -34.35,34.34 -34.95,90.84 -0.6,125.19 34.34,34.34 90.82,33.74 125.16,-0.6 20.84,-20.84 28.83,-49.58 24.4,-76.66 -2.75,7.83 -7.04,15.22 -13.26,21.45z"/>
  </g>
 </g>
</svg>
